<svg xmlns="http://www.w3.org/2000/svg" xmlns:xlink="http://www.w3.org/1999/xlink" width="169.325" height="31.348" viewBox="0 0 169.325 31.348">
  <defs>
    <clipPath id="clip-path">
      <rect id="Rectangle_4" data-name="Rectangle 4" width="169.325" height="31.348" fill="none"/>
    </clipPath>
  </defs>
  <g id="Group_1" data-name="Group 1" clip-path="url(#clip-path)">
    <path id="Path_1" data-name="Path 1" d="M265.307,37.012a5.817,5.817,0,0,1-.173,1.443,2.776,2.776,0,0,1-1.758,1.976,4.975,4.975,0,0,1-1.841.293,5.531,5.531,0,0,1-1.758-.248,4.922,4.922,0,0,1-1.218-.579l.782-1.819a6.66,6.66,0,0,0,.932.451,2.929,2.929,0,0,0,1.082.2,1.579,1.579,0,0,0,1.232-.421,2.111,2.111,0,0,0,.376-1.413V30.1h2.345Z" transform="translate(-211.164 -24.582)" fill="#15a8f3"/>
    <path id="Path_2" data-name="Path 2" d="M307.347,42.643a5.192,5.192,0,0,1,1.653.225,2.57,2.57,0,0,1,1.06.647,2.381,2.381,0,0,1,.564,1.022,5.054,5.054,0,0,1,.165,1.338v4.659q-.481.105-1.338.248a12.86,12.86,0,0,1-2.074.143,6.585,6.585,0,0,1-1.39-.135,3.016,3.016,0,0,1-1.075-.443,2.025,2.025,0,0,1-.691-.8,2.777,2.777,0,0,1-.24-1.218,2.307,2.307,0,0,1,.278-1.172,2.145,2.145,0,0,1,.744-.767,3.375,3.375,0,0,1,1.067-.413,5.994,5.994,0,0,1,1.248-.128,7.115,7.115,0,0,1,.774.037,3.464,3.464,0,0,1,.548.1v-.21a1.241,1.241,0,0,0-.346-.917,1.676,1.676,0,0,0-1.2-.345,7.642,7.642,0,0,0-1.127.083,4.847,4.847,0,0,0-.962.233l-.285-1.8q.2-.06.488-.128t.639-.12q.346-.052.729-.09t.774-.037m.181,6.553q.33,0,.631-.015a4.249,4.249,0,0,0,.481-.045v-1.7q-.135-.03-.406-.06a4.423,4.423,0,0,0-1.089.007,1.558,1.558,0,0,0-.488.143.836.836,0,0,0-.33.286.793.793,0,0,0-.12.451.768.768,0,0,0,.353.729,1.955,1.955,0,0,0,.97.2" transform="translate(-248.26 -34.826)" fill="#15a8f3"/>
    <path id="Path_3" data-name="Path 3" d="M349.267,51.7q-.769-1.5-1.562-3.517t-1.5-4.388h2.375q.151.586.355,1.27t.423,1.382q.219.7.438,1.36t.431,1.2q.2-.541.422-1.2t.445-1.36q.219-.7.423-1.382t.355-1.27h2.316q-.709,2.374-1.5,4.388t-1.56,3.517Z" transform="translate(-282.744 -35.765)" fill="#15a8f3"/>
    <path id="Path_4" data-name="Path 4" d="M395.9,42.643a5.192,5.192,0,0,1,1.653.225,2.57,2.57,0,0,1,1.06.647,2.38,2.38,0,0,1,.564,1.022,5.053,5.053,0,0,1,.165,1.338v4.659q-.481.105-1.338.248a12.859,12.859,0,0,1-2.074.143,6.584,6.584,0,0,1-1.39-.135,3.016,3.016,0,0,1-1.075-.443,2.025,2.025,0,0,1-.691-.8,2.776,2.776,0,0,1-.24-1.218,2.307,2.307,0,0,1,.278-1.172,2.146,2.146,0,0,1,.744-.767,3.375,3.375,0,0,1,1.067-.413,5.994,5.994,0,0,1,1.248-.128,7.117,7.117,0,0,1,.774.037,3.464,3.464,0,0,1,.548.1v-.21a1.241,1.241,0,0,0-.346-.917,1.676,1.676,0,0,0-1.2-.345,7.642,7.642,0,0,0-1.127.083,4.848,4.848,0,0,0-.962.233l-.285-1.8q.2-.06.489-.128t.639-.12q.346-.052.729-.09t.774-.037m.18,6.553q.33,0,.631-.015a4.249,4.249,0,0,0,.481-.045v-1.7q-.135-.03-.406-.06a4.422,4.422,0,0,0-1.089.007,1.558,1.558,0,0,0-.489.143.836.836,0,0,0-.331.286.793.793,0,0,0-.12.451.768.768,0,0,0,.353.729,1.955,1.955,0,0,0,.969.2" transform="translate(-320.576 -34.826)" fill="#15a8f3"/>
    <path id="Path_5" data-name="Path 5" d="M467.516,30.1h2.345V40.514h-2.345V36.1h-3.938v4.418h-2.344V30.1h2.344v3.983h3.938Z" transform="translate(-376.688 -24.581)" fill="#15a8f3"/>
    <path id="Path_6" data-name="Path 6" d="M526.314,46.792a5.138,5.138,0,0,1-.271,1.706,3.708,3.708,0,0,1-.781,1.323,3.52,3.52,0,0,1-1.225.849,4.092,4.092,0,0,1-1.6.3,4.051,4.051,0,0,1-1.586-.3,3.515,3.515,0,0,1-1.225-.849,3.884,3.884,0,0,1-.8-1.323,4.894,4.894,0,0,1-.285-1.706,4.721,4.721,0,0,1,.293-1.7,3.857,3.857,0,0,1,.812-1.307,3.644,3.644,0,0,1,1.232-.842,3.967,3.967,0,0,1,1.555-.3,4.008,4.008,0,0,1,1.571.3,3.566,3.566,0,0,1,1.225.842,3.827,3.827,0,0,1,.8,1.307,4.835,4.835,0,0,1,.285,1.7m-2.284,0a2.817,2.817,0,0,0-.413-1.631,1.352,1.352,0,0,0-1.18-.594,1.371,1.371,0,0,0-1.187.594,2.779,2.779,0,0,0-.421,1.631,2.852,2.852,0,0,0,.421,1.646,1.36,1.36,0,0,0,1.187.609,1.341,1.341,0,0,0,1.18-.609,2.892,2.892,0,0,0,.413-1.646" transform="translate(-423.492 -34.827)" fill="#15a8f3"/>
    <path id="Path_7" data-name="Path 7" d="M574.7,46.7a3.088,3.088,0,0,0-.278-1.533,1.031,1.031,0,0,0-.954-.451c-.14,0-.285.008-.436.022s-.3.033-.436.053v6.1H570.36V43.258q.285-.075.669-.158t.811-.15q.429-.068.879-.105t.887-.037a3.73,3.73,0,0,1,1.39.218,3.145,3.145,0,0,1,.879.519,4.185,4.185,0,0,1,2.254-.737,3.948,3.948,0,0,1,1.556.263,2.344,2.344,0,0,1,.969.744,2.812,2.812,0,0,1,.5,1.142,7.384,7.384,0,0,1,.135,1.473v4.464h-2.239V46.7a3.089,3.089,0,0,0-.278-1.533,1.031,1.031,0,0,0-.954-.451,2.016,2.016,0,0,0-.5.09,1.959,1.959,0,0,0-.533.225,3.441,3.441,0,0,1,.135.729q.03.383.03.819v4.313H574.7Z" transform="translate(-465.81 -34.96)" fill="#15a8f3"/>
    <path id="Path_8" data-name="Path 8" d="M638.987,46.866a4.831,4.831,0,0,1,.323-1.841,3.946,3.946,0,0,1,.849-1.315,3.532,3.532,0,0,1,1.21-.8,3.786,3.786,0,0,1,1.405-.271,3.494,3.494,0,0,1,2.66,1.029,4.243,4.243,0,0,1,.977,3.028c0,.13-.005.273-.015.428s-.02.293-.03.413h-5.08a1.487,1.487,0,0,0,.646,1.1,2.6,2.6,0,0,0,1.533.406,6.47,6.47,0,0,0,1.21-.113,4.552,4.552,0,0,0,.97-.278l.3,1.819a3.1,3.1,0,0,1-.481.18,6.341,6.341,0,0,1-.668.158q-.368.068-.789.113a7.9,7.9,0,0,1-.842.045,4.983,4.983,0,0,1-1.856-.316A3.617,3.617,0,0,1,640,49.789a3.425,3.425,0,0,1-.766-1.3,5.147,5.147,0,0,1-.248-1.623m5.26-.857a2.325,2.325,0,0,0-.1-.556,1.39,1.39,0,0,0-.255-.481,1.364,1.364,0,0,0-.436-.346,1.423,1.423,0,0,0-.654-.135,1.5,1.5,0,0,0-.646.128,1.341,1.341,0,0,0-.451.338,1.521,1.521,0,0,0-.278.489,3.188,3.188,0,0,0-.143.564Z" transform="translate(-521.857 -34.826)" fill="#15a8f3"/>
    <path id="Path_9" data-name="Path 9" d="M712.152,39.652a5.061,5.061,0,0,1-3.87-1.413,5.63,5.63,0,0,1-1.33-4.013,6.172,6.172,0,0,1,.406-2.307,4.969,4.969,0,0,1,1.112-1.713,4.65,4.65,0,0,1,1.683-1.06,6.075,6.075,0,0,1,2.119-.361,6.8,6.8,0,0,1,1.2.1,7.8,7.8,0,0,1,.947.225,4.687,4.687,0,0,1,.676.263q.27.135.391.21l-.676,1.894a5.707,5.707,0,0,0-1.12-.436,5.351,5.351,0,0,0-1.451-.18,3.206,3.206,0,0,0-1.059.18,2.4,2.4,0,0,0-.917.579,2.884,2.884,0,0,0-.639,1.029,4.323,4.323,0,0,0-.24,1.533,5.468,5.468,0,0,0,.158,1.345,2.85,2.85,0,0,0,.511,1.075,2.449,2.449,0,0,0,.924.714,3.289,3.289,0,0,0,1.383.263,6.293,6.293,0,0,0,.917-.06,6.778,6.778,0,0,0,.722-.143,3.789,3.789,0,0,0,.556-.188q.24-.105.436-.2l.646,1.879a5.476,5.476,0,0,1-1.4.541,8.151,8.151,0,0,1-2.089.24" transform="translate(-577.364 -23.509)" fill="#1c3484"/>
    <path id="Path_10" data-name="Path 10" d="M764.877,35.106a5.6,5.6,0,0,1-1.586-.21,2.346,2.346,0,0,1-.962-.548,1.817,1.817,0,0,1-.481-.857,4.619,4.619,0,0,1-.128-1.135v-8.7l2.239-.361V31.9a2.964,2.964,0,0,0,.045.541.928.928,0,0,0,.173.406.911.911,0,0,0,.368.271,2.012,2.012,0,0,0,.646.135Z" transform="translate(-622.093 -19.023)" fill="#1c3484"/>
    <path id="Path_11" data-name="Path 11" d="M793.35,46.792a5.138,5.138,0,0,1-.271,1.706,3.708,3.708,0,0,1-.781,1.323,3.52,3.52,0,0,1-1.225.849,4.092,4.092,0,0,1-1.6.3,4.051,4.051,0,0,1-1.586-.3,3.514,3.514,0,0,1-1.225-.849,3.884,3.884,0,0,1-.8-1.323,4.892,4.892,0,0,1-.285-1.706,4.722,4.722,0,0,1,.293-1.7,3.857,3.857,0,0,1,.812-1.307,3.644,3.644,0,0,1,1.232-.842,3.967,3.967,0,0,1,1.555-.3,4.008,4.008,0,0,1,1.571.3,3.567,3.567,0,0,1,1.225.842,3.829,3.829,0,0,1,.8,1.307,4.836,4.836,0,0,1,.285,1.7m-2.284,0a2.817,2.817,0,0,0-.413-1.631,1.352,1.352,0,0,0-1.18-.594,1.371,1.371,0,0,0-1.187.594,2.779,2.779,0,0,0-.421,1.631,2.852,2.852,0,0,0,.421,1.646,1.36,1.36,0,0,0,1.187.609,1.341,1.341,0,0,0,1.18-.609,2.892,2.892,0,0,0,.413-1.646" transform="translate(-641.579 -34.827)" fill="#1c3484"/>
    <path id="Path_12" data-name="Path 12" d="M843.81,51.426a12.464,12.464,0,0,1-1.473.308,12.109,12.109,0,0,1-1.894.143,4.5,4.5,0,0,1-1.676-.271,2.546,2.546,0,0,1-1.06-.759,2.955,2.955,0,0,1-.556-1.165,6.24,6.24,0,0,1-.165-1.488v-4.4h2.239v4.133a3.2,3.2,0,0,0,.286,1.563,1.136,1.136,0,0,0,1.067.481c.16,0,.331-.007.511-.023s.341-.032.481-.053v-6.1h2.24Z" transform="translate(-683.563 -35.765)" fill="#1c3484"/>
    <path id="Path_13" data-name="Path 13" d="M890.988,34.7q-.3.09-.691.173t-.819.143q-.429.06-.872.1t-.849.037a4.981,4.981,0,0,1-1.743-.285,3.5,3.5,0,0,1-1.293-.819,3.547,3.547,0,0,1-.8-1.292,4.929,4.929,0,0,1-.278-1.706,5.846,5.846,0,0,1,.24-1.736A3.777,3.777,0,0,1,884.571,28a2.958,2.958,0,0,1,1.1-.827,3.706,3.706,0,0,1,1.5-.286,3.518,3.518,0,0,1,.834.091,4.535,4.535,0,0,1,.744.255V23.654l2.239-.361Zm-5.065-3.757a2.741,2.741,0,0,0,.466,1.668,1.608,1.608,0,0,0,1.383.631q.3,0,.556-.022c.17-.015.31-.032.421-.053V29.094a1.954,1.954,0,0,0-.549-.225,2.642,2.642,0,0,0-.684-.09q-1.593,0-1.593,2.164" transform="translate(-721.663 -19.023)" fill="#1c3484"/>
    <path id="Path_14" data-name="Path 14" d="M265.048,135.494v-4.882h.746l2.134,3.564h-.391l2.1-3.564h.746l.007,4.882h-.858l-.007-3.536h.181l-1.786,2.978h-.4l-1.813-2.978h.209v3.536Z" transform="translate(-216.464 -106.67)" fill="#606060"/>
    <path id="Path_15" data-name="Path 15" d="M301.857,140.514a1.752,1.752,0,0,1-.732-.143,1.129,1.129,0,0,1-.485-.4,1.006,1.006,0,0,1-.171-.575,1.081,1.081,0,0,1,.15-.565,1.011,1.011,0,0,1,.492-.4,2.336,2.336,0,0,1,.907-.146H303.1v.579H302.08a.909.909,0,0,0-.6.143.463.463,0,0,0-.153.352.444.444,0,0,0,.188.376.862.862,0,0,0,.523.14,1.135,1.135,0,0,0,.575-.147.831.831,0,0,0,.366-.432l.146.523a.967.967,0,0,1-.45.509,1.662,1.662,0,0,1-.819.181m1.172-.049v-.753l-.049-.161v-1.318a.771.771,0,0,0-.23-.6,1,1,0,0,0-.7-.213,2,2,0,0,0-.617.1,1.517,1.517,0,0,0-.513.272l-.342-.635a2.065,2.065,0,0,1,.715-.345,3.212,3.212,0,0,1,.861-.115,1.842,1.842,0,0,1,1.252.387,1.506,1.506,0,0,1,.443,1.2v2.183Z" transform="translate(-245.391 -111.641)" fill="#606060"/>
    <path id="Path_16" data-name="Path 16" d="M325.256,140.514a3.263,3.263,0,0,1-.9-.122,2.3,2.3,0,0,1-.68-.3l.335-.663a2.376,2.376,0,0,0,.6.265,2.417,2.417,0,0,0,.7.1,1.2,1.2,0,0,0,.6-.112.338.338,0,0,0,.185-.3.261.261,0,0,0-.126-.234.978.978,0,0,0-.328-.122c-.135-.028-.285-.053-.45-.077s-.33-.054-.495-.094a1.707,1.707,0,0,1-.45-.175.931.931,0,0,1-.328-.311.942.942,0,0,1-.126-.516.98.98,0,0,1,.2-.617,1.3,1.3,0,0,1,.568-.4,2.388,2.388,0,0,1,.868-.143,3.574,3.574,0,0,1,.76.084,2.06,2.06,0,0,1,.635.237l-.335.662a1.777,1.777,0,0,0-.534-.219,2.462,2.462,0,0,0-.533-.059,1.146,1.146,0,0,0-.589.119.347.347,0,0,0-.192.3.281.281,0,0,0,.126.251,1.016,1.016,0,0,0,.328.133,4.228,4.228,0,0,0,.45.08,3.955,3.955,0,0,1,.492.094,2.085,2.085,0,0,1,.45.171.87.87,0,0,1,.331.3.929.929,0,0,1,.126.509.946.946,0,0,1-.206.607,1.327,1.327,0,0,1-.583.4,2.535,2.535,0,0,1-.9.143" transform="translate(-264.348 -111.641)" fill="#606060"/>
    <path id="Path_17" data-name="Path 17" d="M343.882,133.289h2.483v.7h-2.483Zm1.9,3.745a1.324,1.324,0,0,1-.948-.317,1.233,1.233,0,0,1-.335-.938v-3.341h.872v3.32a.581.581,0,0,0,.136.412.493.493,0,0,0,.38.146.765.765,0,0,0,.488-.153l.244.621a1.029,1.029,0,0,1-.376.188,1.7,1.7,0,0,1-.46.063" transform="translate(-280.847 -108.161)" fill="#606060"/>
    <path id="Path_18" data-name="Path 18" d="M363.4,140.514a2.265,2.265,0,0,1-1.084-.248,1.788,1.788,0,0,1-.718-.68,1.9,1.9,0,0,1-.255-.983,1.938,1.938,0,0,1,.248-.987,1.777,1.777,0,0,1,.684-.673,2,2,0,0,1,.994-.244,1.957,1.957,0,0,1,.969.237,1.716,1.716,0,0,1,.67.669,2.04,2.04,0,0,1,.244,1.018c0,.037,0,.079,0,.126s-.006.091-.01.133h-3.1V138.3h2.643l-.342.181a1.071,1.071,0,0,0-.133-.565,1.023,1.023,0,0,0-.38-.384,1.085,1.085,0,0,0-.554-.139,1.1,1.1,0,0,0-.562.139.992.992,0,0,0-.376.387,1.19,1.19,0,0,0-.136.582v.14a1.137,1.137,0,0,0,.153.593,1.024,1.024,0,0,0,.433.4,1.413,1.413,0,0,0,.642.139,1.55,1.55,0,0,0,.565-.1,1.2,1.2,0,0,0,.446-.307l.467.537a1.64,1.64,0,0,1-.631.45,2.26,2.26,0,0,1-.868.157" transform="translate(-295.109 -111.641)" fill="#606060"/>
    <path id="Path_19" data-name="Path 19" d="M387.676,140.465v-3.724h.83v1.025l-.1-.3a1.177,1.177,0,0,1,.526-.572,1.857,1.857,0,0,1,.9-.2v.83a.633.633,0,0,0-.1-.017c-.033,0-.065,0-.1,0a1.072,1.072,0,0,0-.788.29,1.16,1.16,0,0,0-.293.861v1.806Z" transform="translate(-316.613 -111.641)" fill="#606060"/>
    <path id="Path_20" data-name="Path 20" d="M414.591,135.494v-1.932l.2.558-2.12-3.508h.969l1.7,2.825H414.8l1.716-2.825h.893l-2.12,3.508.209-.558v1.932Z" transform="translate(-337.027 -106.67)" fill="#606060"/>
    <path id="Path_21" data-name="Path 21" d="M440.3,140.514a2.06,2.06,0,0,1-1.018-.248,1.849,1.849,0,0,1-.7-.68,2.009,2.009,0,0,1,0-1.97,1.836,1.836,0,0,1,.7-.673,2.088,2.088,0,0,1,1.018-.244,2.124,2.124,0,0,1,1.029.244,1.81,1.81,0,0,1,.7.67,2.038,2.038,0,0,1,0,1.974,1.816,1.816,0,0,1-.7.68,2.1,2.1,0,0,1-1.029.248m0-.746a1.157,1.157,0,0,0,.572-.139.987.987,0,0,0,.394-.4,1.427,1.427,0,0,0,0-1.245.994.994,0,0,0-.394-.4,1.219,1.219,0,0,0-1.133,0,1.022,1.022,0,0,0-.394.4,1.4,1.4,0,0,0,0,1.245,1.014,1.014,0,0,0,.394.4,1.122,1.122,0,0,0,.561.139" transform="translate(-357.969 -111.641)" fill="#606060"/>
    <path id="Path_22" data-name="Path 22" d="M466.972,140.7a1.878,1.878,0,0,1-.837-.178,1.277,1.277,0,0,1-.565-.544,1.9,1.9,0,0,1-.2-.924v-2.127h.872v2.008a1.078,1.078,0,0,0,.227.75.83.83,0,0,0,.645.248,1.087,1.087,0,0,0,.534-.125.877.877,0,0,0,.356-.377,1.349,1.349,0,0,0,.129-.621v-1.883H469v3.724h-.83v-1l.146.307a1.281,1.281,0,0,1-.551.554,1.675,1.675,0,0,1-.795.192" transform="translate(-380.064 -111.828)" fill="#606060"/>
    <path id="Path_23" data-name="Path 23" d="M492.42,140.465v-3.724h.83v1.025l-.1-.3a1.176,1.176,0,0,1,.526-.572,1.857,1.857,0,0,1,.9-.2v.83a.633.633,0,0,0-.1-.017c-.033,0-.065,0-.1,0a1.072,1.072,0,0,0-.788.29,1.16,1.16,0,0,0-.293.861v1.806Z" transform="translate(-402.157 -111.641)" fill="#606060"/>
    <path id="Path_24" data-name="Path 24" d="M521.015,135.253a3.638,3.638,0,0,1-1.1-.164,2.39,2.39,0,0,1-.83-.422l.314-.7a2.534,2.534,0,0,0,.725.383,2.631,2.631,0,0,0,.886.153,1.913,1.913,0,0,0,.621-.084.743.743,0,0,0,.349-.227.513.513,0,0,0,.112-.324.448.448,0,0,0-.16-.359,1.191,1.191,0,0,0-.415-.216q-.255-.08-.565-.15t-.621-.164a2.591,2.591,0,0,1-.565-.244,1.223,1.223,0,0,1-.415-.4,1.172,1.172,0,0,1-.16-.642,1.319,1.319,0,0,1,.213-.729,1.464,1.464,0,0,1,.649-.53,2.669,2.669,0,0,1,1.106-.2,3.483,3.483,0,0,1,.872.112,2.509,2.509,0,0,1,.753.321l-.286.7a2.7,2.7,0,0,0-.677-.29,2.566,2.566,0,0,0-.669-.094,1.714,1.714,0,0,0-.61.091.748.748,0,0,0-.342.237.551.551,0,0,0-.108.335.452.452,0,0,0,.157.359,1.105,1.105,0,0,0,.411.213q.254.077.568.15t.624.164a2.577,2.577,0,0,1,.565.237,1.161,1.161,0,0,1,.412.4,1.179,1.179,0,0,1,.157.635,1.309,1.309,0,0,1-.213.722,1.464,1.464,0,0,1-.652.53,2.7,2.7,0,0,1-1.109.2" transform="translate(-423.938 -106.359)" fill="#606060"/>
    <path id="Path_25" data-name="Path 25" d="M545.8,129.014h.872v5.175H545.8Zm.711,4.345.021-1.1,1.946-1.8h1.046l-1.653,1.66-.46.383Zm2.1.83-1.36-1.681.551-.7,1.869,2.378Z" transform="translate(-445.752 -105.365)" fill="#606060"/>
    <path id="Path_26" data-name="Path 26" d="M570.9,128.918a.547.547,0,0,1-.4-.153.518.518,0,0,1,0-.743.556.556,0,0,1,.4-.15.573.573,0,0,1,.4.143.465.465,0,0,1,.157.359.532.532,0,0,1-.153.387.541.541,0,0,1-.4.157m-.439.614h.872v3.724h-.872Z" transform="translate(-465.794 -104.432)" fill="#606060"/>
    <rect id="Rectangle_2" data-name="Rectangle 2" width="0.872" height="5.175" transform="translate(106.862 23.649)" fill="#606060"/>
    <rect id="Rectangle_3" data-name="Rectangle 3" width="0.872" height="5.175" transform="translate(109.059 23.649)" fill="#606060"/>
    <path id="Path_27" data-name="Path 27" d="M606.2,140.514a3.263,3.263,0,0,1-.9-.122,2.3,2.3,0,0,1-.68-.3l.335-.663a2.375,2.375,0,0,0,.6.265,2.417,2.417,0,0,0,.7.1,1.2,1.2,0,0,0,.6-.112.338.338,0,0,0,.185-.3.261.261,0,0,0-.126-.234.977.977,0,0,0-.328-.122c-.135-.028-.285-.053-.45-.077s-.33-.054-.495-.094a1.707,1.707,0,0,1-.45-.175.93.93,0,0,1-.328-.311.941.941,0,0,1-.126-.516.98.98,0,0,1,.2-.617,1.3,1.3,0,0,1,.568-.4,2.388,2.388,0,0,1,.868-.143,3.573,3.573,0,0,1,.76.084,2.06,2.06,0,0,1,.635.237l-.335.662a1.777,1.777,0,0,0-.534-.219,2.462,2.462,0,0,0-.533-.059,1.146,1.146,0,0,0-.589.119.347.347,0,0,0-.192.3.281.281,0,0,0,.126.251,1.016,1.016,0,0,0,.328.133,4.227,4.227,0,0,0,.45.08,3.954,3.954,0,0,1,.492.094,2.085,2.085,0,0,1,.45.171.87.87,0,0,1,.331.3.928.928,0,0,1,.126.509.946.946,0,0,1-.206.607,1.327,1.327,0,0,1-.583.4,2.535,2.535,0,0,1-.9.143" transform="translate(-493.79 -111.641)" fill="#606060"/>
    <path id="Path_28" data-name="Path 28" d="M30.482,30.405H18.022a1.408,1.408,0,0,1,0-2.816H27.53L21.4,20.033c-.009,0-.018,0-.025.01l-7.257,7.441a7.093,7.093,0,0,1-5.6,2.153l-.095-.008A9.26,9.26,0,0,1,.022,21.1a9.143,9.143,0,0,1,2.455-6.939,9.258,9.258,0,0,1,5.494-2.843,14.081,14.081,0,0,1,27.617.013,9.26,9.26,0,0,1,5.484,2.913,9.2,9.2,0,0,1-.14,12.551,1.408,1.408,0,0,1-2.04-1.941,6.4,6.4,0,0,0-4.508-10.805,1.414,1.414,0,0,1-1.418-1.278,11.264,11.264,0,0,0-22.345-.229,1.389,1.389,0,0,1,0,.173,1.408,1.408,0,0,1-1.406,1.334A6.4,6.4,0,0,0,2.831,20.9a6.425,6.425,0,0,0,5.826,5.92l.069.005a4.294,4.294,0,0,0,3.381-1.311l7.27-7.454A2.836,2.836,0,0,1,23.369,18a1.4,1.4,0,0,1,.123.133l8.084,9.975a1.408,1.408,0,0,1-1.094,2.294" transform="translate(0)" fill="#1c3484"/>
    <path id="Path_29" data-name="Path 29" d="M152.367,109.067a1.4,1.4,0,0,1-1.1-.522L142.3,97.457a1.408,1.408,0,1,1,2.188-1.771l8.974,11.088a1.408,1.408,0,0,1-1.093,2.293" transform="translate(-115.958 -77.72)" fill="#15a8f3"/>
    <path id="Path_30" data-name="Path 30" d="M184.673,112.841a1.4,1.4,0,0,1-1.095-.522l-6.605-8.152a1.408,1.408,0,0,1,2.188-1.773l6.6,8.152a1.408,1.408,0,0,1-1.093,2.294" transform="translate(-144.277 -83.199)" fill="#1c3484"/>
  </g>
</svg>
